<?xml version="1.0" encoding="UTF-8" standalone="no"?>
<!-- Created with Inkscape (http://www.inkscape.org/) -->

<svg
   width="210mm"
   height="297mm"
   viewBox="0 0 210 297"
   version="1.1"
   id="svg5"
   inkscape:version="1.1 (c68e22c387, 2021-05-23)"
   sodipodi:docname="logoSkertch.svg"
   xmlns:inkscape="http://www.inkscape.org/namespaces/inkscape"
   xmlns:sodipodi="http://sodipodi.sourceforge.net/DTD/sodipodi-0.dtd"
   xmlns="http://www.w3.org/2000/svg"
   xmlns:svg="http://www.w3.org/2000/svg">
  <sodipodi:namedview
     id="namedview7"
     pagecolor="#ffffff"
     bordercolor="#666666"
     borderopacity="1.0"
     inkscape:pageshadow="2"
     inkscape:pageopacity="0.0"
     inkscape:pagecheckerboard="0"
     inkscape:document-units="mm"
     showgrid="false"
     inkscape:zoom="5.9295174"
     inkscape:cx="-340.41556"
     inkscape:cy="604.518"
     inkscape:window-width="1920"
     inkscape:window-height="1017"
     inkscape:window-x="-8"
     inkscape:window-y="-8"
     inkscape:window-maximized="1"
     inkscape:current-layer="layer1" />
  <defs
     id="defs2" />
  <g
     inkscape:label="Layer 1"
     inkscape:groupmode="layer"
     id="layer1">
    <path
       style="fill:none;stroke:#000000;stroke-width:0.264583px;stroke-linecap:butt;stroke-linejoin:miter;stroke-opacity:1"
       d="m -119.58534,165.27764 c 5.00407,-0.48035 8.90846,-0.29327 11.67654,-9.74434 0.74588,-2.54666 1.55995,-2.10474 1.84375,-1.43332 3.6335,8.83815 3.70962,11.89387 3.9713,20.10194 2.251292,-4.71612 3.536356,-7.29942 4.72987,-12.40475 1.521436,5.50589 3.156818,8.40286 2.766526,12.76172 1.649815,-3.50794 2.766132,-7.50006 2.85577,-11.78004 1.682639,2.54808 4.20595,2.12168 5.086837,2.14182"
       id="path857"
       sodipodi:nodetypes="cscccccc" />
    <path
       style="fill:none;stroke:#000000;stroke-width:0.264583px;stroke-linecap:butt;stroke-linejoin:miter;stroke-opacity:1"
       d="m -119.58534,165.27764 c 4.72202,0.40935 9.25144,0.42354 12.09694,-6.56697 0.76053,-1.86837 -0.85975,2.07885 0.4006,-1.13953 3.29962,6.62632 3.41351,10.49821 4.99405,16.63078 1.72184,-2.84665 3.396021,-4.02128 4.787105,-8.23792 1.273986,2.37044 1.906091,5.59673 2.709291,8.59489 1.912157,-3.22644 3.20456,-3.39488 3.538022,-9.73077 2.06864,1.08161 2.947748,0.0815 4.404587,0.0925"
       id="path3271"
       sodipodi:nodetypes="cscccccc" />
  </g>
</svg>
